<mxfile host="Electron" modified="2023-12-13T10:20:44.288Z" agent="Mozilla/5.0 (Windows NT 10.0; Win64; x64) AppleWebKit/537.36 (KHTML, like Gecko) draw.io/22.1.2 Chrome/114.0.5735.289 Electron/25.9.4 Safari/537.36" etag="TZImhYquwijfyI-A-5Fc" version="22.1.2" type="device">
  <diagram name="Page-1" id="GgPyIpGDk4c4OADg5op0">
    <mxGraphModel dx="1219" dy="826" grid="1" gridSize="10" guides="1" tooltips="1" connect="1" arrows="1" fold="1" page="1" pageScale="1" pageWidth="827" pageHeight="1400" math="0" shadow="0">
      <root>
        <mxCell id="0" />
        <mxCell id="1" parent="0" />
        <mxCell id="eGH9VqQ-00GoRvuF3f-Z-1" value="" style="ellipse;html=1;shape=startState;fillColor=#000000;strokeColor=#ff0000;" parent="1" vertex="1">
          <mxGeometry x="425" y="40" width="30" height="30" as="geometry" />
        </mxCell>
        <mxCell id="eGH9VqQ-00GoRvuF3f-Z-2" value="" style="edgeStyle=orthogonalEdgeStyle;html=1;verticalAlign=bottom;endArrow=open;endSize=8;strokeColor=#ff0000;rounded=0;" parent="1" source="eGH9VqQ-00GoRvuF3f-Z-1" edge="1">
          <mxGeometry relative="1" as="geometry">
            <mxPoint x="440" y="130" as="targetPoint" />
          </mxGeometry>
        </mxCell>
        <mxCell id="eGH9VqQ-00GoRvuF3f-Z-8" style="edgeStyle=orthogonalEdgeStyle;shape=connector;rounded=0;orthogonalLoop=1;jettySize=auto;html=1;entryX=0.5;entryY=0;entryDx=0;entryDy=0;labelBackgroundColor=default;strokeColor=#ff0000;align=center;verticalAlign=bottom;fontFamily=Helvetica;fontSize=11;fontColor=default;endArrow=open;endSize=8;" parent="1" source="eGH9VqQ-00GoRvuF3f-Z-3" edge="1">
          <mxGeometry relative="1" as="geometry">
            <mxPoint x="440" y="240" as="targetPoint" />
          </mxGeometry>
        </mxCell>
        <mxCell id="eGH9VqQ-00GoRvuF3f-Z-3" value="Ajouter un produit dans le panier" style="html=1;whiteSpace=wrap;fillColor=#ffffc0;strokeColor=#ff1313;rounded=1;" parent="1" vertex="1">
          <mxGeometry x="385" y="130" width="110" height="50" as="geometry" />
        </mxCell>
        <mxCell id="eGH9VqQ-00GoRvuF3f-Z-13" style="edgeStyle=orthogonalEdgeStyle;shape=connector;rounded=0;orthogonalLoop=1;jettySize=auto;html=1;entryX=0.5;entryY=0;entryDx=0;entryDy=0;labelBackgroundColor=default;strokeColor=#ff0000;align=center;verticalAlign=bottom;fontFamily=Helvetica;fontSize=11;fontColor=default;endArrow=open;endSize=8;" parent="1" source="eGH9VqQ-00GoRvuF3f-Z-9" target="eGH9VqQ-00GoRvuF3f-Z-10" edge="1">
          <mxGeometry relative="1" as="geometry" />
        </mxCell>
        <mxCell id="eGH9VqQ-00GoRvuF3f-Z-9" value="Connexion au site" style="html=1;whiteSpace=wrap;rounded=1;strokeColor=#ff1313;align=center;verticalAlign=middle;fontFamily=Helvetica;fontSize=11;fontColor=default;fillColor=#ffffc0;" parent="1" vertex="1">
          <mxGeometry x="385" y="240" width="110" height="50" as="geometry" />
        </mxCell>
        <mxCell id="eGH9VqQ-00GoRvuF3f-Z-10" value="Condition" style="rhombus;whiteSpace=wrap;html=1;fontColor=#000000;fillColor=#ffffc0;strokeColor=#ff0000;rounded=0;align=center;verticalAlign=middle;fontFamily=Helvetica;fontSize=11;" parent="1" vertex="1">
          <mxGeometry x="400" y="350" width="80" height="40" as="geometry" />
        </mxCell>
        <mxCell id="eGH9VqQ-00GoRvuF3f-Z-11" value="no" style="edgeStyle=orthogonalEdgeStyle;html=1;align=left;verticalAlign=bottom;endArrow=open;endSize=8;strokeColor=#ff0000;rounded=0;labelBackgroundColor=default;fontFamily=Helvetica;fontSize=11;fontColor=default;shape=connector;entryX=1;entryY=0.5;entryDx=0;entryDy=0;" parent="1" source="eGH9VqQ-00GoRvuF3f-Z-10" target="eGH9VqQ-00GoRvuF3f-Z-9" edge="1">
          <mxGeometry x="-1" relative="1" as="geometry">
            <mxPoint x="580" y="370" as="targetPoint" />
            <Array as="points">
              <mxPoint x="540" y="370" />
              <mxPoint x="540" y="265" />
            </Array>
          </mxGeometry>
        </mxCell>
        <mxCell id="eGH9VqQ-00GoRvuF3f-Z-12" value="yes" style="edgeStyle=orthogonalEdgeStyle;html=1;align=left;verticalAlign=top;endArrow=open;endSize=8;strokeColor=#ff0000;rounded=0;labelBackgroundColor=default;fontFamily=Helvetica;fontSize=11;fontColor=default;shape=connector;entryX=0.504;entryY=0.181;entryDx=0;entryDy=0;entryPerimeter=0;" parent="1" source="eGH9VqQ-00GoRvuF3f-Z-10" edge="1" target="a5zeHgnWLW8xDEpJKvAp-10">
          <mxGeometry x="-1" relative="1" as="geometry">
            <mxPoint x="440" y="450" as="targetPoint" />
          </mxGeometry>
        </mxCell>
        <mxCell id="a5zeHgnWLW8xDEpJKvAp-16" style="edgeStyle=orthogonalEdgeStyle;shape=connector;rounded=0;orthogonalLoop=1;jettySize=auto;html=1;exitX=0.25;exitY=0.5;exitDx=0;exitDy=0;exitPerimeter=0;entryX=0.5;entryY=0;entryDx=0;entryDy=0;labelBackgroundColor=default;strokeColor=#ff0000;align=left;verticalAlign=bottom;fontFamily=Helvetica;fontSize=11;fontColor=default;endArrow=open;endSize=8;" edge="1" parent="1" source="a5zeHgnWLW8xDEpJKvAp-10" target="a5zeHgnWLW8xDEpJKvAp-14">
          <mxGeometry relative="1" as="geometry" />
        </mxCell>
        <mxCell id="a5zeHgnWLW8xDEpJKvAp-17" style="edgeStyle=orthogonalEdgeStyle;shape=connector;rounded=0;orthogonalLoop=1;jettySize=auto;html=1;exitX=0.75;exitY=0.5;exitDx=0;exitDy=0;exitPerimeter=0;entryX=0.5;entryY=0;entryDx=0;entryDy=0;labelBackgroundColor=default;strokeColor=#ff0000;align=left;verticalAlign=bottom;fontFamily=Helvetica;fontSize=11;fontColor=default;endArrow=open;endSize=8;" edge="1" parent="1" source="a5zeHgnWLW8xDEpJKvAp-10" target="a5zeHgnWLW8xDEpJKvAp-15">
          <mxGeometry relative="1" as="geometry" />
        </mxCell>
        <mxCell id="a5zeHgnWLW8xDEpJKvAp-10" value="" style="shape=line;html=1;strokeWidth=6;strokeColor=#ff0000;rounded=1;align=center;verticalAlign=middle;fontFamily=Helvetica;fontSize=11;fontColor=default;fillColor=#ffffc0;" vertex="1" parent="1">
          <mxGeometry x="340" y="450" width="200" height="10" as="geometry" />
        </mxCell>
        <mxCell id="a5zeHgnWLW8xDEpJKvAp-21" style="edgeStyle=orthogonalEdgeStyle;shape=connector;rounded=0;orthogonalLoop=1;jettySize=auto;html=1;entryX=0.5;entryY=0;entryDx=0;entryDy=0;labelBackgroundColor=default;strokeColor=#ff0000;align=left;verticalAlign=bottom;fontFamily=Helvetica;fontSize=11;fontColor=default;endArrow=open;endSize=8;" edge="1" parent="1" source="a5zeHgnWLW8xDEpJKvAp-14" target="a5zeHgnWLW8xDEpJKvAp-18">
          <mxGeometry relative="1" as="geometry" />
        </mxCell>
        <mxCell id="a5zeHgnWLW8xDEpJKvAp-14" value="Verifier le paiement" style="html=1;whiteSpace=wrap;rounded=1;strokeColor=#ff1313;align=center;verticalAlign=middle;fontFamily=Helvetica;fontSize=11;fontColor=default;fillColor=#ffffc0;" vertex="1" parent="1">
          <mxGeometry x="245" y="530" width="110" height="50" as="geometry" />
        </mxCell>
        <mxCell id="a5zeHgnWLW8xDEpJKvAp-25" style="edgeStyle=orthogonalEdgeStyle;shape=connector;rounded=0;orthogonalLoop=1;jettySize=auto;html=1;labelBackgroundColor=default;strokeColor=#ff0000;align=left;verticalAlign=bottom;fontFamily=Helvetica;fontSize=11;fontColor=default;endArrow=open;endSize=8;" edge="1" parent="1" source="a5zeHgnWLW8xDEpJKvAp-15" target="a5zeHgnWLW8xDEpJKvAp-22">
          <mxGeometry relative="1" as="geometry" />
        </mxCell>
        <mxCell id="a5zeHgnWLW8xDEpJKvAp-15" value="Verifier la disponibilitÃ© du produit" style="html=1;whiteSpace=wrap;rounded=1;strokeColor=#ff1313;align=center;verticalAlign=middle;fontFamily=Helvetica;fontSize=11;fontColor=default;fillColor=#ffffc0;" vertex="1" parent="1">
          <mxGeometry x="525" y="530" width="110" height="50" as="geometry" />
        </mxCell>
        <mxCell id="a5zeHgnWLW8xDEpJKvAp-18" value="Condition" style="rhombus;whiteSpace=wrap;html=1;fontColor=#000000;fillColor=#ffffc0;strokeColor=#ff0000;rounded=0;align=center;verticalAlign=middle;fontFamily=Helvetica;fontSize=11;" vertex="1" parent="1">
          <mxGeometry x="260" y="620" width="80" height="40" as="geometry" />
        </mxCell>
        <mxCell id="a5zeHgnWLW8xDEpJKvAp-19" value="no" style="edgeStyle=orthogonalEdgeStyle;html=1;align=left;verticalAlign=bottom;endArrow=open;endSize=8;strokeColor=#ff0000;rounded=0;labelBackgroundColor=default;fontFamily=Helvetica;fontSize=11;fontColor=default;shape=connector;entryX=0;entryY=0.5;entryDx=0;entryDy=0;" edge="1" source="a5zeHgnWLW8xDEpJKvAp-18" parent="1" target="a5zeHgnWLW8xDEpJKvAp-26">
          <mxGeometry x="-1" relative="1" as="geometry">
            <mxPoint x="440" y="640" as="targetPoint" />
          </mxGeometry>
        </mxCell>
        <mxCell id="a5zeHgnWLW8xDEpJKvAp-20" value="yes" style="edgeStyle=orthogonalEdgeStyle;html=1;align=left;verticalAlign=top;endArrow=open;endSize=8;strokeColor=#ff0000;rounded=0;labelBackgroundColor=default;fontFamily=Helvetica;fontSize=11;fontColor=default;shape=connector;entryX=0.25;entryY=0.5;entryDx=0;entryDy=0;entryPerimeter=0;" edge="1" source="a5zeHgnWLW8xDEpJKvAp-18" parent="1" target="a5zeHgnWLW8xDEpJKvAp-27">
          <mxGeometry x="-1" relative="1" as="geometry">
            <mxPoint x="300" y="720" as="targetPoint" />
          </mxGeometry>
        </mxCell>
        <mxCell id="a5zeHgnWLW8xDEpJKvAp-22" value="Condition" style="rhombus;whiteSpace=wrap;html=1;fontColor=#000000;fillColor=#ffffc0;strokeColor=#ff0000;rounded=0;align=center;verticalAlign=middle;fontFamily=Helvetica;fontSize=11;" vertex="1" parent="1">
          <mxGeometry x="540" y="620" width="80" height="40" as="geometry" />
        </mxCell>
        <mxCell id="a5zeHgnWLW8xDEpJKvAp-23" value="no" style="edgeStyle=orthogonalEdgeStyle;html=1;align=left;verticalAlign=bottom;endArrow=open;endSize=8;strokeColor=#ff0000;rounded=0;labelBackgroundColor=default;fontFamily=Helvetica;fontSize=11;fontColor=default;shape=connector;exitX=0;exitY=0.5;exitDx=0;exitDy=0;entryX=1;entryY=0.5;entryDx=0;entryDy=0;" edge="1" source="a5zeHgnWLW8xDEpJKvAp-22" parent="1" target="a5zeHgnWLW8xDEpJKvAp-26">
          <mxGeometry x="-0.75" relative="1" as="geometry">
            <mxPoint x="480" y="640" as="targetPoint" />
            <mxPoint as="offset" />
          </mxGeometry>
        </mxCell>
        <mxCell id="a5zeHgnWLW8xDEpJKvAp-24" value="yes" style="edgeStyle=orthogonalEdgeStyle;html=1;align=left;verticalAlign=top;endArrow=open;endSize=8;strokeColor=#ff0000;rounded=0;labelBackgroundColor=default;fontFamily=Helvetica;fontSize=11;fontColor=default;shape=connector;entryX=0.75;entryY=0.5;entryDx=0;entryDy=0;entryPerimeter=0;" edge="1" source="a5zeHgnWLW8xDEpJKvAp-22" parent="1" target="a5zeHgnWLW8xDEpJKvAp-27">
          <mxGeometry x="-1" relative="1" as="geometry">
            <mxPoint x="580" y="720" as="targetPoint" />
          </mxGeometry>
        </mxCell>
        <mxCell id="a5zeHgnWLW8xDEpJKvAp-26" value="" style="ellipse;html=1;shape=endState;fillColor=#000000;strokeColor=#ff0000;rounded=1;align=center;verticalAlign=middle;fontFamily=Helvetica;fontSize=11;fontColor=default;" vertex="1" parent="1">
          <mxGeometry x="425" y="550" width="30" height="30" as="geometry" />
        </mxCell>
        <mxCell id="a5zeHgnWLW8xDEpJKvAp-30" style="edgeStyle=orthogonalEdgeStyle;shape=connector;rounded=0;orthogonalLoop=1;jettySize=auto;html=1;entryX=0.5;entryY=0;entryDx=0;entryDy=0;labelBackgroundColor=default;strokeColor=#ff0000;align=left;verticalAlign=bottom;fontFamily=Helvetica;fontSize=11;fontColor=default;endArrow=open;endSize=8;exitX=0.25;exitY=0.5;exitDx=0;exitDy=0;exitPerimeter=0;" edge="1" parent="1" source="a5zeHgnWLW8xDEpJKvAp-27" target="a5zeHgnWLW8xDEpJKvAp-29">
          <mxGeometry relative="1" as="geometry" />
        </mxCell>
        <mxCell id="a5zeHgnWLW8xDEpJKvAp-34" style="edgeStyle=orthogonalEdgeStyle;shape=connector;rounded=0;orthogonalLoop=1;jettySize=auto;html=1;entryX=0.5;entryY=0;entryDx=0;entryDy=0;labelBackgroundColor=default;strokeColor=#ff0000;align=left;verticalAlign=bottom;fontFamily=Helvetica;fontSize=11;fontColor=default;endArrow=open;endSize=8;exitX=0.75;exitY=0.5;exitDx=0;exitDy=0;exitPerimeter=0;" edge="1" parent="1" source="a5zeHgnWLW8xDEpJKvAp-27" target="a5zeHgnWLW8xDEpJKvAp-33">
          <mxGeometry relative="1" as="geometry" />
        </mxCell>
        <mxCell id="a5zeHgnWLW8xDEpJKvAp-27" value="" style="shape=line;html=1;strokeWidth=6;strokeColor=#ff0000;rounded=1;align=center;verticalAlign=middle;fontFamily=Helvetica;fontSize=11;fontColor=default;fillColor=#ffffc0;" vertex="1" parent="1">
          <mxGeometry x="340" y="740" width="200" height="10" as="geometry" />
        </mxCell>
        <mxCell id="a5zeHgnWLW8xDEpJKvAp-36" style="edgeStyle=orthogonalEdgeStyle;shape=connector;rounded=0;orthogonalLoop=1;jettySize=auto;html=1;entryX=0.5;entryY=0;entryDx=0;entryDy=0;labelBackgroundColor=default;strokeColor=#ff0000;align=left;verticalAlign=bottom;fontFamily=Helvetica;fontSize=11;fontColor=default;endArrow=open;endSize=8;" edge="1" parent="1" source="a5zeHgnWLW8xDEpJKvAp-29" target="a5zeHgnWLW8xDEpJKvAp-32">
          <mxGeometry relative="1" as="geometry" />
        </mxCell>
        <mxCell id="a5zeHgnWLW8xDEpJKvAp-29" value="DÃ©biter la carte de crÃ©dit" style="html=1;whiteSpace=wrap;rounded=1;strokeColor=#ff1313;align=center;verticalAlign=middle;fontFamily=Helvetica;fontSize=11;fontColor=default;fillColor=#ffffc0;" vertex="1" parent="1">
          <mxGeometry x="325" y="800" width="100" height="50" as="geometry" />
        </mxCell>
        <mxCell id="a5zeHgnWLW8xDEpJKvAp-39" style="edgeStyle=orthogonalEdgeStyle;shape=connector;rounded=0;orthogonalLoop=1;jettySize=auto;html=1;entryX=1;entryY=0.5;entryDx=0;entryDy=0;labelBackgroundColor=default;strokeColor=#ff0000;align=left;verticalAlign=bottom;fontFamily=Helvetica;fontSize=11;fontColor=default;endArrow=open;endSize=8;" edge="1" parent="1" source="a5zeHgnWLW8xDEpJKvAp-31" target="a5zeHgnWLW8xDEpJKvAp-37">
          <mxGeometry relative="1" as="geometry" />
        </mxCell>
        <mxCell id="a5zeHgnWLW8xDEpJKvAp-31" value="ExpÃ©dier la commande" style="html=1;whiteSpace=wrap;rounded=1;strokeColor=#ff1313;align=center;verticalAlign=middle;fontFamily=Helvetica;fontSize=11;fontColor=default;fillColor=#ffffc0;" vertex="1" parent="1">
          <mxGeometry x="455" y="880" width="100" height="50" as="geometry" />
        </mxCell>
        <mxCell id="a5zeHgnWLW8xDEpJKvAp-38" style="edgeStyle=orthogonalEdgeStyle;shape=connector;rounded=0;orthogonalLoop=1;jettySize=auto;html=1;entryX=0;entryY=0.5;entryDx=0;entryDy=0;labelBackgroundColor=default;strokeColor=#ff0000;align=left;verticalAlign=bottom;fontFamily=Helvetica;fontSize=11;fontColor=default;endArrow=open;endSize=8;" edge="1" parent="1" source="a5zeHgnWLW8xDEpJKvAp-32" target="a5zeHgnWLW8xDEpJKvAp-37">
          <mxGeometry relative="1" as="geometry" />
        </mxCell>
        <mxCell id="a5zeHgnWLW8xDEpJKvAp-32" value="GÃ©nÃ©rer la facture" style="html=1;whiteSpace=wrap;rounded=1;strokeColor=#ff1313;align=center;verticalAlign=middle;fontFamily=Helvetica;fontSize=11;fontColor=default;fillColor=#ffffc0;" vertex="1" parent="1">
          <mxGeometry x="325" y="880" width="100" height="50" as="geometry" />
        </mxCell>
        <mxCell id="a5zeHgnWLW8xDEpJKvAp-35" style="edgeStyle=orthogonalEdgeStyle;shape=connector;rounded=0;orthogonalLoop=1;jettySize=auto;html=1;entryX=0.5;entryY=0;entryDx=0;entryDy=0;labelBackgroundColor=default;strokeColor=#ff0000;align=left;verticalAlign=bottom;fontFamily=Helvetica;fontSize=11;fontColor=default;endArrow=open;endSize=8;" edge="1" parent="1" source="a5zeHgnWLW8xDEpJKvAp-33" target="a5zeHgnWLW8xDEpJKvAp-31">
          <mxGeometry relative="1" as="geometry" />
        </mxCell>
        <mxCell id="a5zeHgnWLW8xDEpJKvAp-33" value="PrÃ©parer la commande" style="html=1;whiteSpace=wrap;rounded=1;strokeColor=#ff1313;align=center;verticalAlign=middle;fontFamily=Helvetica;fontSize=11;fontColor=default;fillColor=#ffffc0;" vertex="1" parent="1">
          <mxGeometry x="455" y="800" width="100" height="50" as="geometry" />
        </mxCell>
        <mxCell id="a5zeHgnWLW8xDEpJKvAp-37" value="" style="ellipse;html=1;shape=endState;fillColor=#000000;strokeColor=#ff0000;rounded=1;align=center;verticalAlign=middle;fontFamily=Helvetica;fontSize=11;fontColor=default;" vertex="1" parent="1">
          <mxGeometry x="425" y="970" width="30" height="30" as="geometry" />
        </mxCell>
      </root>
    </mxGraphModel>
  </diagram>
</mxfile>
